<svg width="20" height="20" viewBox="0 0 20 20" fill="none" xmlns="http://www.w3.org/2000/svg">
<path d="M3.33337 11.6667C3.17567 11.6673 3.02106 11.623 2.8875 11.5392C2.75393 11.4554 2.6469 11.3354 2.57883 11.1931C2.51076 11.0509 2.48445 10.8922 2.50295 10.7356C2.52146 10.579 2.58402 10.4309 2.68337 10.3084L10.9334 1.80839C10.9953 1.73696 11.0796 1.68868 11.1725 1.6715C11.2655 1.65431 11.3615 1.66923 11.4448 1.71381C11.5281 1.75838 11.5939 1.82997 11.6311 1.91681C11.6684 2.00365 11.6751 2.10059 11.65 2.19172L10.05 7.20839C10.0029 7.33466 9.98701 7.47049 10.0039 7.60423C10.0207 7.73797 10.0698 7.86562 10.1468 7.97624C10.2238 8.08686 10.3265 8.17715 10.4461 8.23935C10.5657 8.30156 10.6986 8.33383 10.8334 8.33339H16.6667C16.8244 8.33285 16.979 8.37707 17.1126 8.46091C17.2461 8.54474 17.3532 8.66476 17.4212 8.80701C17.4893 8.94926 17.5156 9.1079 17.4971 9.26451C17.4786 9.42111 17.4161 9.56926 17.3167 9.69172L9.0667 18.1917C9.00482 18.2632 8.92048 18.3114 8.82755 18.3286C8.73461 18.3458 8.6386 18.3309 8.55526 18.2863C8.47192 18.2417 8.40621 18.1701 8.36892 18.0833C8.33163 17.9965 8.32497 17.8995 8.35003 17.8084L9.95003 12.7917C9.99721 12.6655 10.0131 12.5296 9.99621 12.3959C9.97936 12.2621 9.93032 12.1345 9.85329 12.0239C9.77627 11.9132 9.67356 11.823 9.55397 11.7608C9.43439 11.6985 9.3015 11.6663 9.1667 11.6667H3.33337Z" stroke="white" stroke-width="1.66667" stroke-linecap="round" stroke-linejoin="round"/>
</svg>
