<svg width="16" height="16" viewBox="0 0 16 16" fill="none" xmlns="http://www.w3.org/2000/svg">
<path d="M7.68335 1.52997C7.71257 1.47094 7.7577 1.42126 7.81365 1.38652C7.86961 1.35178 7.93416 1.33337 8.00002 1.33337C8.06588 1.33337 8.13043 1.35178 8.18639 1.38652C8.24234 1.42126 8.28747 1.47094 8.31669 1.52997L9.85669 4.6493C9.95814 4.85461 10.1079 5.03224 10.2931 5.16694C10.4783 5.30164 10.6934 5.38938 10.92 5.42264L14.364 5.92664C14.4293 5.93609 14.4906 5.96362 14.541 6.0061C14.5914 6.04859 14.629 6.10434 14.6494 6.16704C14.6698 6.22975 14.6722 6.29691 14.6564 6.36093C14.6406 6.42495 14.6072 6.48327 14.56 6.5293L12.0694 8.95464C11.9051 9.1147 11.7822 9.31229 11.7112 9.53039C11.6403 9.74849 11.6234 9.98056 11.662 10.2066L12.25 13.6333C12.2615 13.6985 12.2545 13.7657 12.2297 13.8271C12.2049 13.8885 12.1633 13.9417 12.1097 13.9806C12.0561 14.0196 11.9927 14.0426 11.9266 14.0472C11.8605 14.0518 11.7945 14.0378 11.736 14.0066L8.65735 12.388C8.4545 12.2815 8.22881 12.2258 7.99969 12.2258C7.77057 12.2258 7.54487 12.2815 7.34202 12.388L4.26402 14.0066C4.20557 14.0376 4.13962 14.0515 4.07365 14.0468C4.00769 14.0421 3.94437 14.019 3.89088 13.9801C3.8374 13.9412 3.79591 13.8881 3.77112 13.8268C3.74634 13.7655 3.73926 13.6984 3.75069 13.6333L4.33802 10.2073C4.37682 9.98112 4.36001 9.7489 4.28905 9.53067C4.21808 9.31243 4.09509 9.11474 3.93069 8.95464L1.44002 6.52997C1.39242 6.48399 1.35868 6.42557 1.34266 6.36135C1.32664 6.29714 1.32898 6.22972 1.34941 6.16676C1.36983 6.10381 1.40753 6.04786 1.4582 6.00529C1.50888 5.96272 1.57049 5.93524 1.63602 5.92597L5.07935 5.42264C5.30619 5.38964 5.52161 5.30201 5.70708 5.16729C5.89254 5.03258 6.04249 4.85482 6.14402 4.6493L7.68335 1.52997Z" stroke="#FF4D55" stroke-width="1.33333" stroke-linecap="round" stroke-linejoin="round"/>
</svg>
